PathFileType	4	(X/Y/Z)	 s09c0103.trc
DataRate	CameraRate	NumFrames	NumMarkers	Units	OrigDataRate	OrigDataStartFrame	OrigNumFrames
200	200	5	50	mm	200	501	2000
Frame#	Time	racr			lacr			c7			jug			rlel			rdr			llel			ldr			s2			lic			ric			lasi			rasi			rpsi			lpsi			rgt			lgt			rth1			rth2			rth3			rth4			rlfc			rmfc			rsh1			rsh2			rsh3			rsh4			rlmal			rmmal			rcal			rtoe			rmt5			lth1			lth2			lth4			lth3			llfc			lmfc			llmal			lmmal			lcal			lmt5			lsh1			lsh2			lsh3			lsh4			ltoe			SBIKE			LBIKE			RBIKE			
		X1	Y1	Z1	X2	Y2	Z2	X3	Y3	Z3	X4	Y4	Z4	X5	Y5	Z5	X6	Y6	Z6	X7	Y7	Z7	X8	Y8	Z8	X9	Y9	Z9	X10	Y10	Z10	X11	Y11	Z11	X12	Y12	Z12	X13	Y13	Z13	X14	Y14	Z14	X15	Y15	Z15	X16	Y16	Z16	X17	Y17	Z17	X18	Y18	Z18	X19	Y19	Z19	X20	Y20	Z20	X21	Y21	Z21	X22	Y22	Z22	X23	Y23	Z23	X24	Y24	Z24	X25	Y25	Z25	X26	Y26	Z26	X27	Y27	Z27	X28	Y28	Z28	X29	Y29	Z29	X30	Y30	Z30	X31	Y31	Z31	X32	Y32	Z32	X33	Y33	Z33	X34	Y34	Z34	X35	Y35	Z35	X36	Y36	Z36	X37	Y37	Z37	X38	Y38	Z38	X39	Y39	Z39	X40	Y40	Z40	X41	Y41	Z41	X42	Y42	Z42	X43	Y43	Z43	X44	Y44	Z44	X45	Y45	Z45	X46	Y46	Z46	X47	Y47	Z47	X48	Y48	Z48	X49	Y49	Z49	X50	Y50	Z50	
501	2.5050	487.098715	1240.885929	-58.068442	552.318806	1224.030580	-365.083450	492.462113	1279.716084	-214.501784	472.919229	1143.993916	-215.944105	481.396039	1001.672241	31.065467	690.155808	885.759931	-40.503483	503.590225	1008.616294	-533.961878	693.813101	873.799900	-443.967700	8.066634	1120.998953	-277.979339	151.498925	1097.692072	-418.202406	142.083621	1142.611177	-120.140266	190.368867	1045.745223	-386.331511	191.450712	1095.456676	-133.229450	33.762029	1158.262796	-222.573768	44.310516	1150.024207	-332.678407	140.762924	1033.957104	-68.781449	109.103610	958.040653	-439.412083	268.137306	978.623427	-83.553797	354.308070	969.613862	-98.814646	423.540745	915.081929	-100.869123	363.420600	994.653906	-124.750003	503.105922	839.597797	-134.596792	483.125403	811.573062	-231.874612	443.103934	758.829699	-95.484704	417.885987	672.309681	-101.404523	355.269231	611.991519	-90.445797	438.842076	659.694403	-132.079180	305.347710	520.404568	-81.518929	300.135505	529.997937	-159.833170	218.747924	483.175431	-111.741836	484.495087	482.582494	-130.467563	407.351461	464.048736	-60.465271	195.922514	848.824717	-434.456719	261.895743	796.227667	-426.239459	292.738913	817.298275	-420.783699	294.265123	712.423720	-414.407412	329.892361	619.109646	-397.606510	341.271576	607.863668	-300.150250	130.142111	311.986555	-402.539022	156.333384	308.370711	-333.127122	60.444617	307.564508	-361.958472	184.824613	189.594613	-428.175959	276.020958	536.278654	-419.143176	250.178880	454.347778	-408.879644	185.019669	393.825047	-408.774745	271.973948	443.736986	-377.309100	275.617039	157.802489	-363.720730	-65.279468	851.742379	-240.043179	20.886197	84.665502	-442.236448	21.078863	84.123917	-43.877305	
502	2.5100	487.086410	1240.013437	-58.069766	551.351739	1221.122780	-366.869474	491.991027	1278.733832	-215.278791	471.369767	1142.671678	-215.844112	479.894648	1000.472243	30.741072	689.471629	885.763773	-40.636285	500.532508	1005.450474	-534.319639	692.852125	873.630815	-444.570479	9.456099	1119.008335	-277.844413	149.901378	1097.480832	-417.174693	141.333169	1141.687158	-118.686446	189.067747	1045.781398	-385.312458	190.976014	1094.817958	-132.319931	32.704033	1157.270428	-221.380646	42.317885	1149.920100	-330.823499	139.643198	1031.155979	-68.146954	109.603286	957.493046	-438.980031	267.670578	973.660371	-83.134551	353.979627	963.637802	-97.424446	422.234195	907.493384	-100.493780	363.550516	988.930275	-122.417948	500.842077	832.170481	-133.673041	481.105099	804.484878	-230.490922	442.673365	750.072439	-94.347674	418.930172	663.179215	-100.978500	357.580647	601.649552	-89.992376	439.527804	651.564472	-132.258171	310.012633	509.594810	-81.309859	304.349197	519.712664	-159.778193	223.946634	469.654288	-111.818297	489.457975	478.605911	-130.195505	413.253947	457.259732	-60.211372	197.746738	850.121345	-434.109231	264.064546	797.989990	-425.013852	294.568918	819.347001	-418.876623	296.936211	714.430501	-413.570532	332.797355	621.690134	-397.255624	343.068562	610.286475	-299.643453	125.349913	319.278039	-401.991809	151.550903	315.283781	-332.516351	55.626652	316.030343	-361.303252	177.888997	196.057475	-427.887402	276.569813	540.072375	-418.881040	248.767509	458.643209	-408.543421	182.117684	399.754316	-408.245869	270.400402	447.640771	-377.084916	268.301330	162.810702	-363.963736	-65.231916	851.731172	-239.989422	20.885820	84.645751	-442.227833	21.076093	84.079437	-43.858073	
503	2.5150	487.343635	1239.431388	-58.199377	550.320341	1218.280266	-368.854039	492.484545	1277.512250	-217.663313	470.888036	1141.684681	-217.004575	478.018573	999.799953	30.560681	688.721437	885.819020	-40.640026	497.143569	1002.233550	-534.903290	692.132633	873.508004	-445.057303	8.928015	1118.110392	-276.693767	148.299257	1097.376755	-416.074419	140.679816	1140.639951	-117.008527	187.714125	1046.250986	-384.192738	190.587399	1093.929504	-131.128222	31.653729	1156.180434	-220.005185	40.819976	1149.301000	-329.573482	138.620059	1027.915078	-67.283010	110.153366	957.203100	-438.640924	267.362664	968.869311	-81.552440	353.397865	957.438071	-95.039958	420.690666	900.012532	-99.255386	363.724950	982.924431	-119.985773	498.547932	824.369185	-132.733542	478.619391	796.815718	-227.915352	442.123535	741.279083	-93.261354	420.699269	654.211010	-99.625010	359.914363	591.172815	-89.591817	440.424707	643.122671	-132.119351	314.556898	498.809938	-81.162771	308.194209	509.269827	-159.482309	229.987556	455.834852	-112.330544	494.908929	473.415646	-130.099005	418.979441	449.981735	-60.048236	199.559045	851.553417	-433.560392	266.139903	800.013499	-423.784834	296.349262	821.554672	-416.918993	299.651527	716.637019	-412.823842	335.454715	624.345452	-396.926703	345.209026	612.612091	-299.306287	120.809262	326.920967	-401.643253	147.194982	322.439201	-332.161332	51.086555	324.749339	-360.767264	171.336314	202.935776	-427.686451	277.112048	543.993651	-418.776921	247.477511	463.326791	-408.564341	179.326756	406.097189	-407.958720	268.694505	451.552373	-376.710347	261.335502	168.342974	-364.087573	-65.177346	851.723364	-239.925705	20.883143	84.633766	-442.223685	21.072459	84.064213	-43.854631	
504	2.5200	487.860532	1238.962834	-58.452164	549.171797	1215.609813	-371.050800	492.915066	1276.350436	-220.303038	470.784368	1140.704165	-218.345860	476.588012	999.045075	30.035814	688.099251	885.847520	-40.597595	494.345583	999.089751	-535.071105	691.520546	873.416114	-445.633939	7.581145	1117.447414	-275.232611	146.709218	1097.356644	-414.841606	139.664356	1139.344219	-115.443664	186.359882	1046.938343	-383.338701	190.100772	1092.781863	-129.858594	30.696534	1154.967978	-218.447259	39.297545	1148.772937	-328.245060	137.912072	1024.458295	-66.376291	110.649678	957.068339	-438.283613	267.011838	963.962355	-80.108382	352.474700	951.396594	-92.853522	419.051630	892.196727	-98.243220	363.738487	977.087428	-117.381041	496.190227	816.656428	-131.524469	476.415802	789.325990	-226.249945	441.452947	732.369298	-92.185749	420.931618	644.740321	-100.052835	362.254308	580.713455	-89.112554	441.233628	634.687033	-131.970252	319.005238	488.064824	-80.915147	312.392943	499.046158	-159.290435	235.766696	442.253406	-113.705483	499.860728	467.773590	-130.012363	424.298847	442.345405	-59.746463	201.210685	853.253167	-433.018441	268.194942	802.270705	-422.572650	298.059543	824.036802	-414.887261	302.340731	719.078627	-412.219825	337.853368	627.378100	-396.742225	346.525325	615.185671	-299.204398	116.394257	334.818043	-401.458099	143.095367	329.885196	-332.059488	46.695549	333.595715	-360.507010	165.225357	210.194067	-427.519458	277.728106	548.091940	-418.759516	246.310167	468.202878	-408.517619	176.813399	412.500392	-407.749565	267.211195	455.947296	-376.694901	254.850448	174.410277	-364.082319	-65.123972	851.687476	-239.850489	20.880545	84.591648	-442.228220	21.053209	84.031993	-43.853246	
505	2.5250	488.581914	1238.898706	-58.761282	547.899085	1213.326365	-373.559393	493.092516	1275.301282	-222.671210	470.513219	1139.838129	-219.356450	475.325681	998.390949	29.438007	687.601853	885.870000	-40.647507	491.733581	996.171755	-535.125960	691.060960	873.326291	-445.995364	6.288472	1116.706021	-273.587398	145.166844	1097.465656	-413.561091	139.063872	1138.095249	-113.691370	185.268507	1047.329034	-382.220557	189.600983	1091.526175	-128.524487	29.688794	1153.799995	-216.593618	37.734936	1148.330731	-326.626632	137.373227	1020.795682	-65.216648	111.088155	957.156322	-437.829451	266.848632	958.862214	-78.437426	352.175961	944.911731	-91.053426	417.213288	884.436903	-97.209998	364.142839	969.618918	-115.685789	494.064733	808.845507	-130.719680	474.154882	782.074733	-224.498499	440.610462	723.584876	-91.089130	421.788917	635.788128	-99.526814	364.590432	570.392037	-88.671421	441.918528	626.097688	-131.489990	323.102427	478.003488	-80.287936	317.622767	488.207147	-159.592102	239.748764	429.991946	-113.027836	504.556209	461.426305	-130.328145	429.556387	434.349647	-59.720554	203.010687	855.406508	-432.912510	270.182449	804.797517	-421.421025	299.574612	826.756433	-412.789915	305.057890	721.857255	-411.709690	340.016004	630.451494	-396.761759	348.481403	617.199438	-299.124873	112.334668	342.885545	-401.489079	139.047643	337.760316	-332.094129	42.574058	342.604754	-360.578030	159.515792	217.675280	-427.505320	278.456817	552.389526	-418.820529	245.583532	473.504485	-408.938026	174.505260	418.970818	-407.614979	266.043288	460.828601	-376.881475	248.716421	181.002138	-364.101168	-65.082003	851.675939	-239.811976	20.877944	84.603557	-442.221167	21.053215	84.012673	-43.845443	
